<svg xmlns="http://www.w3.org/2000/svg" xmlns:xlink="http://www.w3.org/1999/xlink" width="203.362" height="203.869" viewBox="0 0 203.362 203.869">
  <defs>
    <linearGradient id="linear-gradient" x1="0.02" y1="0.545" x2="1" y2="0.5" gradientUnits="objectBoundingBox">
      <stop offset="0" stop-color="#009640"/>
      <stop offset="1" stop-color="#004318"/>
    </linearGradient>
  </defs>
  <g id="Groupe_155" data-name="Groupe 155" transform="translate(-476.098 -151.573)">
    <path id="Tracé_346" data-name="Tracé 346" d="M577.579,355.442Zm-3.267-3.258a3.263,3.263,0,0,1,3.267-3.267h0a3.261,3.261,0,0,1,3.258,3.267h0a3.248,3.248,0,0,1-3.258,3.258h0A3.267,3.267,0,0,1,574.312,352.184Zm17.186-.93a3.292,3.292,0,0,1-.052-.582h0a3.262,3.262,0,0,1,2.7-3.2h0a3.254,3.254,0,0,1,3.771,2.65h0a3.269,3.269,0,0,1,.052.573h0a3.265,3.265,0,0,1-2.693,3.206h0a3.2,3.2,0,0,1-.573.052h0A3.264,3.264,0,0,1,591.5,351.254Zm-31.591,2.337a3.254,3.254,0,0,1-2.693-3.2h0a4.375,4.375,0,0,1,.043-.582h0a3.274,3.274,0,0,1,3.779-2.65h0a3.271,3.271,0,0,1,2.7,3.206h0a3.2,3.2,0,0,1-.052.573h0a3.256,3.256,0,0,1-3.206,2.7h0A3.2,3.2,0,0,1,559.907,353.591Zm48.343-6.238a3.34,3.34,0,0,1-.191-1.121h0a3.254,3.254,0,0,1,2.146-3.058h0a3.26,3.26,0,0,1,4.179,1.946h0a3.216,3.216,0,0,1,.2,1.121h0a3.269,3.269,0,0,1-2.146,3.067h0a3.39,3.39,0,0,1-1.121.2h0A3.273,3.273,0,0,1,608.25,347.353Zm-65.494,1.842a3.249,3.249,0,0,1-2.2-3.093h0a3.418,3.418,0,0,1,.174-1.051h0a3.264,3.264,0,0,1,4.144-2.024h0a3.257,3.257,0,0,1,2.207,3.1h0a3.407,3.407,0,0,1-.174,1.043h0a3.277,3.277,0,0,1-3.093,2.207h0A3.278,3.278,0,0,1,542.756,349.195Zm-16.239-7.177v-.009h0a3.267,3.267,0,0,1-1.686-2.841h0a3.283,3.283,0,0,1,.408-1.59h0a3.276,3.276,0,0,1,4.44-1.277h-.009a3.242,3.242,0,0,1,1.686,2.841h0a3.179,3.179,0,0,1-.4,1.59h0a3.269,3.269,0,0,1-2.858,1.686h0A3.339,3.339,0,0,1,526.517,342.018Zm97.554-1.425a3.142,3.142,0,0,1-.443-1.616h0a3.257,3.257,0,0,1,1.625-2.841h0a3.254,3.254,0,0,1,4.457,1.19h0a3.245,3.245,0,0,1,.443,1.625h0a3.272,3.272,0,0,1-1.625,2.832h0a3.275,3.275,0,0,1-1.633.443h0A3.256,3.256,0,0,1,624.071,340.593Zm-112.264-8.584a3.262,3.262,0,0,1-1.19-2.52h0a3.254,3.254,0,0,1,.747-2.068h0a3.267,3.267,0,0,1,4.6-.443h0a3.253,3.253,0,0,1,1.182,2.52h0a3.246,3.246,0,0,1-.747,2.077h0a3.236,3.236,0,0,1-2.511,1.182h0A3.229,3.229,0,0,1,511.808,332.009Zm-12.6-12.581a3.229,3.229,0,0,1-.747-2.077h0a3.238,3.238,0,0,1,1.182-2.52h0a3.256,3.256,0,0,1,4.588.434h0a3.233,3.233,0,0,1,.756,2.068h0a3.27,3.27,0,0,1-1.182,2.528h0a3.251,3.251,0,0,1-2.085.747h0A3.236,3.236,0,0,1,499.209,319.428Zm-10.035-14.692h-.009a3.283,3.283,0,0,1-.408-1.59h0a3.264,3.264,0,0,1,1.677-2.85h0a3.26,3.26,0,0,1,4.44,1.268h0a3.251,3.251,0,0,1,.408,1.581h0a3.254,3.254,0,0,1-1.677,2.85h0a3.169,3.169,0,0,1-1.581.417h0A3.254,3.254,0,0,1,489.174,304.736Zm-7.246-16.23h0a3.353,3.353,0,0,1-.182-1.086h0a3.269,3.269,0,0,1,2.2-3.058h0a3.265,3.265,0,0,1,4.153,2.016h0a3.126,3.126,0,0,1,.174,1.043h0a3.271,3.271,0,0,1-2.189,3.111h0a3.277,3.277,0,0,1-1.069.174h0A3.258,3.258,0,0,1,481.928,288.506Zm187.228,1.807a3.257,3.257,0,0,1-2.146-3.058h0a3.166,3.166,0,0,1,.2-1.121h0a3.262,3.262,0,0,1,4.18-1.955h0a3.266,3.266,0,0,1,2.146,3.058h0a3.428,3.428,0,0,1-.191,1.129h0a3.281,3.281,0,0,1-3.076,2.146h0A3.342,3.342,0,0,1,669.156,290.313ZM477.566,271.3a3.753,3.753,0,0,1-.043-.539h0a3.267,3.267,0,0,1,2.728-3.215h0A3.263,3.263,0,0,1,484,270.234h0a3.752,3.752,0,0,1,.043.539h0a3.267,3.267,0,0,1-2.728,3.215h0a3.753,3.753,0,0,1-.539.043h0A3.267,3.267,0,0,1,477.566,271.3Zm196.585,2.546a3.271,3.271,0,0,1-2.7-3.2h0a3.2,3.2,0,0,1,.052-.573h0a3.254,3.254,0,0,1,3.771-2.659h0a3.27,3.27,0,0,1,2.7,3.2h0a3.3,3.3,0,0,1-.052.582h0a3.265,3.265,0,0,1-3.206,2.7h0A3.1,3.1,0,0,1,674.152,273.848ZM476.1,253.63a3.261,3.261,0,0,1,3.258-3.267h0a3.254,3.254,0,0,1,3.267,3.249h0a3.274,3.274,0,0,1-3.258,3.276h0A3.267,3.267,0,0,1,476.1,253.63Zm196.828-.122h.009v-.1h0c0-.052-.009-.1-.009-.148h0a3.267,3.267,0,0,1,3.258-3.267h0a3.254,3.254,0,0,1,3.267,3.249h0v.009h0v.1h0a.94.94,0,0,1,.009.156h0a3.261,3.261,0,0,1-3.267,3.258h0A3.267,3.267,0,0,1,672.926,253.509Zm-192.71-13.815a3.261,3.261,0,0,1-2.737-3.215h0a2.73,2.73,0,0,1,.043-.53h0a3.252,3.252,0,0,1,3.745-2.693h0A3.267,3.267,0,0,1,484,236.462h0a3.756,3.756,0,0,1-.043.539h0a3.277,3.277,0,0,1-3.223,2.737h0A3.519,3.519,0,0,1,480.216,239.694Zm191.242-3a3.373,3.373,0,0,1-.052-.582h0a3.27,3.27,0,0,1,2.693-3.206h0a3.261,3.261,0,0,1,3.779,2.641h0a3.373,3.373,0,0,1,.052.582h0a3.27,3.27,0,0,1-2.694,3.206h0a3.2,3.2,0,0,1-.573.052h0A3.257,3.257,0,0,1,671.458,236.7ZM483.865,222.873a3.257,3.257,0,0,1-2.207-3.093h0a3.417,3.417,0,0,1,.174-1.051h0a3.273,3.273,0,0,1,4.153-2.024h0a3.249,3.249,0,0,1,2.2,3.093h0a3.176,3.176,0,0,1-.174,1.051h0a3.27,3.27,0,0,1-3.084,2.207h0A3.2,3.2,0,0,1,483.865,222.873Zm183.257-2.224a3.217,3.217,0,0,1-.2-1.121h0a3.261,3.261,0,0,1,2.137-3.067h0a3.254,3.254,0,0,1,4.188,1.938h0a3.181,3.181,0,0,1,.2,1.121h0a3.269,3.269,0,0,1-2.137,3.067h0a3.182,3.182,0,0,1-1.121.2h0A3.269,3.269,0,0,1,667.123,220.649Zm-176.81-13.728a3.277,3.277,0,0,1-1.686-2.841h0a3.283,3.283,0,0,1,.408-1.59h0a3.269,3.269,0,0,1,4.44-1.277h0a3.277,3.277,0,0,1,1.686,2.841h0a3.341,3.341,0,0,1-.408,1.6v-.009a3.269,3.269,0,0,1-2.858,1.686h0A3.251,3.251,0,0,1,490.312,206.921Zm169.746-1.312a3.181,3.181,0,0,1-.443-1.625h0a3.257,3.257,0,0,1,1.616-2.841h0a3.271,3.271,0,0,1,4.466,1.182h0a3.329,3.329,0,0,1,.443,1.616h0a3.275,3.275,0,0,1-1.625,2.841h0a3.188,3.188,0,0,1-1.633.443h0A3.257,3.257,0,0,1,660.059,205.609Zm-9.583-13.6h0a3.285,3.285,0,0,1-.765-2.1h0a3.244,3.244,0,0,1,1.156-2.494h0a3.256,3.256,0,0,1,4.6.391h0a3.231,3.231,0,0,1,.773,2.1h0a3.253,3.253,0,0,1-1.164,2.494h0a3.251,3.251,0,0,1-2.1.765h0A3.244,3.244,0,0,1,650.475,192.012Zm-151,.356a3.262,3.262,0,0,1-1.19-2.52h0a3.246,3.246,0,0,1,.747-2.077h0a3.274,3.274,0,0,1,4.6-.443h0a3.266,3.266,0,0,1,1.182,2.52h0a3.236,3.236,0,0,1-.739,2.077h0a3.275,3.275,0,0,1-2.52,1.19h0A3.246,3.246,0,0,1,499.479,192.368Zm139.215-12.094a3.2,3.2,0,0,1-1.173-2.485h0a3.3,3.3,0,0,1,.756-2.111h0a3.264,3.264,0,0,1,4.6-.408h0a3.258,3.258,0,0,1,1.173,2.485h0a3.244,3.244,0,0,1-.765,2.111h0a3.238,3.238,0,0,1-2.5,1.173h0A3.223,3.223,0,0,1,638.694,180.274Zm-127.521-.521a3.206,3.206,0,0,1-.747-2.068h0a3.247,3.247,0,0,1,1.173-2.528h0a3.272,3.272,0,0,1,4.6.426h0a3.3,3.3,0,0,1,.756,2.077h0a3.253,3.253,0,0,1-1.182,2.52h0a3.261,3.261,0,0,1-2.085.756h0A3.236,3.236,0,0,1,511.173,179.752Zm13.849-10.2a3.294,3.294,0,0,1-.417-1.59h0a3.259,3.259,0,0,1,1.686-2.841h0a3.253,3.253,0,0,1,4.431,1.26h0a3.2,3.2,0,0,1,.417,1.59h0a3.272,3.272,0,0,1-1.677,2.85h0a3.283,3.283,0,0,1-1.59.408h0A3.237,3.237,0,0,1,525.023,169.552Zm100.03,1.2a3.251,3.251,0,0,1-1.633-2.832h0a3.225,3.225,0,0,1,.434-1.616h0a3.257,3.257,0,0,1,4.457-1.2h0a3.27,3.27,0,0,1,1.633,2.832h0a3.226,3.226,0,0,1-.434,1.616h0a3.27,3.27,0,0,1-2.832,1.642h0A3.244,3.244,0,0,1,625.053,170.751ZM540.5,162.045a3.168,3.168,0,0,1-.182-1.086h0a3.268,3.268,0,0,1,2.2-3.067h0a3.252,3.252,0,0,1,4.144,2.016h0a3.2,3.2,0,0,1,.182,1.086h0a3.26,3.26,0,0,1-2.2,3.067h0a3.251,3.251,0,0,1-1.069.182h0A3.259,3.259,0,0,1,540.5,162.045Zm69.473,1.7a3.267,3.267,0,0,1-2.155-3.05h0a3.231,3.231,0,0,1,.2-1.13h0a3.254,3.254,0,0,1,4.179-1.955h0a3.249,3.249,0,0,1,2.146,3.058h0a3.169,3.169,0,0,1-.191,1.121h0a3.273,3.273,0,0,1-3.067,2.155h0A3.3,3.3,0,0,1,609.97,163.748Zm-52.956-6.5a3.367,3.367,0,0,1-.052-.582h0a3.264,3.264,0,0,1,2.685-3.206h0a3.257,3.257,0,0,1,3.788,2.641h0a3.191,3.191,0,0,1,.052.573h0a3.257,3.257,0,0,1-2.693,3.206h0a3.2,3.2,0,0,1-.573.052h0A3.257,3.257,0,0,1,557.014,157.249Zm36.891,2.242a3.271,3.271,0,0,1-2.711-3.2h0a3.275,3.275,0,0,1,.052-.573h0a3.262,3.262,0,0,1,3.771-2.659h0a3.257,3.257,0,0,1,2.7,3.2h0a3.245,3.245,0,0,1-.043.573h0a3.273,3.273,0,0,1-3.215,2.711h0A3.012,3.012,0,0,1,593.9,159.491Zm-19.836-4.527a.536.536,0,0,1-.009-.122h0a3.264,3.264,0,0,1,3.128-3.267h0a3.269,3.269,0,0,1,3.4,3.128h0v.122h0a3.258,3.258,0,0,1-3.128,3.267h0c-.043,0-.087.009-.139.009h0A3.256,3.256,0,0,1,574.069,154.964Z" transform="translate(0 0)" fill="url(#linear-gradient)"/>
    <g id="Groupe_154" data-name="Groupe 154" transform="translate(501.688 169.601)">
      <path id="Tracé_347" data-name="Tracé 347" d="M581.921,272.83a2,2,0,1,0-.8-3.915,31.164,31.164,0,0,0-16.775,51.515q.49.537,1,1.051a2,2,0,0,0,2.828-2.824q-.45-.448-.876-.918a27.389,27.389,0,0,1-2.435-3.1,27.184,27.184,0,0,1,17.055-41.814Z" transform="translate(-512.198 -184.986)" fill="url(#linear-gradient)"/>
      <path id="Tracé_348" data-name="Tracé 348" d="M661.576,324.41a2,2,0,0,0-2.967.117,2.075,2.075,0,0,0,.184,2.753l6.388,6.55H618.47a2,2,0,1,0,0,4h46.866l-6.519,6.527a2.081,2.081,0,0,0-.192,2.8,2,2,0,0,0,2.934.115l10.135-10.148a1.647,1.647,0,0,0,.014-2.314Z" transform="translate(-520.099 -192.191)" fill="url(#linear-gradient)"/>
      <path id="Tracé_349" data-name="Tracé 349" d="M542.268,243.871,536.1,250.05a1.5,1.5,0,0,0-.012,2.108l6.265,6.426a2,2,0,0,0,2.929-.073,2.1,2.1,0,0,0-.168-2.821l-4.425-4.537a.031.031,0,0,1,0-.043l4.509-4.515a2,2,0,0,0-.135-2.947A2.094,2.094,0,0,0,542.268,243.871Z" transform="translate(-509.5 -181.62)" fill="url(#linear-gradient)"/>
      <path id="Tracé_350" data-name="Tracé 350" d="M564.721,255.686a2.082,2.082,0,0,0-.192,2.8,2,2,0,0,0,2.934.115l6.661-6.67a.94.94,0,0,0,.008-1.32l-6.653-6.822a2,2,0,0,0-2.967.116,2.075,2.075,0,0,0,.184,2.753l4.469,4.583Z" transform="translate(-513.227 -181.616)" fill="url(#linear-gradient)"/>
      <path id="Tracé_351" data-name="Tracé 351" d="M572.361,235.248v23.895a2,2,0,0,0,2.2,1.988,2.077,2.077,0,0,0,1.792-2.1V220.309a3.274,3.274,0,0,0-3.274-3.274H508.825a3.274,3.274,0,0,0-3.274,3.274V305a2.077,2.077,0,0,0,1.792,2.1,2,2,0,0,0,2.2-1.988V235.248Zm0-14.217v10.22H509.548v-10.22Z" transform="translate(-505.551 -178.187)" fill="url(#linear-gradient)"/>
      <path id="Tracé_352" data-name="Tracé 352" d="M529.742,250.09H515.789a2,2,0,0,0,0,4h13.953a2,2,0,0,0,0-4Z" transform="translate(-506.632 -182.522)" fill="url(#linear-gradient)"/>
      <path id="Tracé_353" data-name="Tracé 353" d="M619.125,259.862h13.952a2,2,0,1,0,0-4H619.125a2,2,0,0,0,0,4Z" transform="translate(-520.185 -183.28)" fill="url(#linear-gradient)"/>
      <path id="Tracé_354" data-name="Tracé 354" d="M619.125,272.547h13.952a2,2,0,1,0,0-4H619.125a2,2,0,0,0,0,4Z" transform="translate(-520.185 -184.943)" fill="url(#linear-gradient)"/>
      <path id="Tracé_355" data-name="Tracé 355" d="M653.589,261.335h19.518a2,2,0,1,0,0-4H653.589a2,2,0,0,0,0,4Z" transform="translate(-524.705 -183.473)" fill="url(#linear-gradient)"/>
      <path id="Tracé_356" data-name="Tracé 356" d="M653.589,280.155h19.518a2,2,0,1,0,0-4H653.589a2,2,0,0,0,0,4Z" transform="translate(-524.705 -185.941)" fill="url(#linear-gradient)"/>
      <path id="Tracé_357" data-name="Tracé 357" d="M653.589,298.974h19.518a2,2,0,1,0,0-4H653.589a2,2,0,0,0,0,4Z" transform="translate(-524.705 -188.41)" fill="url(#linear-gradient)"/>
      <path id="Tracé_358" data-name="Tracé 358" d="M516.31,294.493h25.879a2.016,2.016,0,0,0,0-4H516.31a2.016,2.016,0,0,0,0,4Z" transform="translate(-506.732 -187.822)" fill="url(#linear-gradient)"/>
      <path id="Tracé_359" data-name="Tracé 359" d="M543.942,303.944a1.887,1.887,0,0,0-1.752-2H516.31a2.015,2.015,0,0,0,0,4h25.879A1.887,1.887,0,0,0,543.942,303.944Z" transform="translate(-506.732 -189.324)" fill="url(#linear-gradient)"/>
      <path id="Tracé_360" data-name="Tracé 360" d="M547.047,250.09a2,2,0,0,0,0,4H561a2,2,0,1,0,0-4Z" transform="translate(-510.731 -182.522)" fill="url(#linear-gradient)"/>
      <path id="Tracé_361" data-name="Tracé 361" d="M523.392,269.615a2,2,0,0,0-2.828-2.824l-5.068,5.076a3.236,3.236,0,0,0-.027,4.528l5.078,5.209a2,2,0,0,0,2.861-2.791l-4.547-4.662Z" transform="translate(-506.732 -184.636)" fill="url(#linear-gradient)"/>
      <path id="Tracé_362" data-name="Tracé 362" d="M552.488,281.62l6.284-6.293a1.478,1.478,0,0,0,.012-2.078l-6.28-6.441a2,2,0,0,0-2.967.116,2.076,2.076,0,0,0,.184,2.754l4.469,4.582-4.445,4.449a2.081,2.081,0,0,0-.192,2.8,2,2,0,0,0,2.934.115Z" transform="translate(-511.262 -184.636)" fill="url(#linear-gradient)"/>
      <path id="Tracé_363" data-name="Tracé 363" d="M523.139,275.111a2,2,0,0,0,2,2H544.41a2,2,0,0,0,0-4H525.136A2,2,0,0,0,523.139,275.111Z" transform="translate(-507.858 -185.542)" fill="url(#linear-gradient)"/>
      <g id="Groupe_153" data-name="Groupe 153" transform="translate(42.836 45.956)">
        <path id="Tracé_364" data-name="Tracé 364" d="M556.851,229.213a2,2,0,1,0-.391-3.957,2.082,2.082,0,0,0-.376.112,2.016,2.016,0,0,0-.343.184,1.825,1.825,0,0,0-.3.248,2.008,2.008,0,0,0,0,2.829A2.039,2.039,0,0,0,556.851,229.213Z" transform="translate(-554.853 -225.216)" fill="url(#linear-gradient)"/>
        <path id="Tracé_365" data-name="Tracé 365" d="M564.865,228.876a2.833,2.833,0,0,0,.343.184,2.179,2.179,0,0,0,.376.111,1.9,1.9,0,0,0,.783,0,2,2,0,0,0,.375-.111,2.911,2.911,0,0,0,.344-.184,2.272,2.272,0,0,0,.3-.248,2.037,2.037,0,0,0,.584-1.414,2.228,2.228,0,0,0-.04-.392,2.081,2.081,0,0,0-.112-.375,2.023,2.023,0,0,0-.184-.344,2.141,2.141,0,0,0-.248-.3,2.007,2.007,0,0,0-1.805-.544,2.264,2.264,0,0,0-.376.112,1.986,1.986,0,0,0-.343.184,2.811,2.811,0,0,0-.3.248,2.271,2.271,0,0,0-.248.3,1.923,1.923,0,0,0-.3.719,2.139,2.139,0,0,0-.04.392,2.036,2.036,0,0,0,.583,1.414A2.918,2.918,0,0,0,564.865,228.876Z" transform="translate(-556.05 -225.216)" fill="url(#linear-gradient)"/>
        <path id="Tracé_366" data-name="Tracé 366" d="M572.767,227.974a2.492,2.492,0,0,0,.183.352,2.984,2.984,0,0,0,.248.3,2,2,0,0,0,2.83-2.829,2.01,2.01,0,0,0-1.806-.544,2.281,2.281,0,0,0-.375.112,2.026,2.026,0,0,0-.344.184,2.9,2.9,0,0,0-.3.248,2.036,2.036,0,0,0-.583,1.414,2.139,2.139,0,0,0,.04.392A1.929,1.929,0,0,0,572.767,227.974Z" transform="translate(-557.183 -225.216)" fill="url(#linear-gradient)"/>
      </g>
      <path id="Tracé_367" data-name="Tracé 367" d="M664.1,226.819H599.634a3.17,3.17,0,0,0-3.17,3.17v37.017a30.7,30.7,0,0,0-10.351-3.784l6.469-6.477a2,2,0,0,0-.135-2.947,2.094,2.094,0,0,0-2.792.222l-10.092,10.106a1.539,1.539,0,0,0-.019,2.163c2.794,2.883,10.194,10.485,10.194,10.485a2,2,0,0,0,2.928-.072,2.1,2.1,0,0,0-.168-2.821l-6.453-6.617a27.177,27.177,0,0,1-5.224,53.846H517.558a2,2,0,1,0,0,4h65.2a1.983,1.983,0,0,0,.645-.116,31.13,31.13,0,0,0,17.055-55.211V245.031h24.908v64.25a2,2,0,0,0,4,0v-64.25h33.91V314.44a2.076,2.076,0,0,0,1.792,2.1,2,2,0,0,0,2.2-1.988V229.989A3.17,3.17,0,0,0,664.1,226.819Zm-63.639,14.216v-10.22h62.814v10.22Z" transform="translate(-506.864 -179.47)" fill="url(#linear-gradient)"/>
      <path id="Tracé_368" data-name="Tracé 368" d="M582.212,197.414h30.1a8.137,8.137,0,1,0-3.483-15.482,11.771,11.771,0,0,0-23.141,0,8.133,8.133,0,1,0-3.48,15.483Zm0-12.277a4.144,4.144,0,0,1,4,3.066,2,2,0,1,0,3.86-1.033c-.063-.236-.138-.467-.222-.694a7.782,7.782,0,1,1,14.584.656,2,2,0,1,0,3.68,1.557c0-.01.007-.019.011-.03a1.987,1.987,0,0,0,.189-.452,4.141,4.141,0,1,1,4,5.21h-30.1a4.14,4.14,0,1,1,0-8.281Z" transform="translate(-514.538 -172.323)" fill="url(#linear-gradient)"/>
      <path id="Tracé_369" data-name="Tracé 369" d="M660.491,236.7a2.022,2.022,0,0,0-.183-.344,3.008,3.008,0,0,0-.248-.3,2.031,2.031,0,0,0-1.806-.544,2.085,2.085,0,0,0-.376.112,2.05,2.05,0,0,0-.343.184,2.792,2.792,0,0,0-.3.248,2.879,2.879,0,0,0-.247.3,2.672,2.672,0,0,0-.184.344,2.2,2.2,0,0,0-.112.375,1.94,1.94,0,0,0,0,.784,2,2,0,0,0,.112.375,2.6,2.6,0,0,0,.184.343,2.207,2.207,0,0,0,.247.3,3.014,3.014,0,0,0,.3.248,2.048,2.048,0,0,0,.343.184,2.013,2.013,0,0,0,.376.111,2.142,2.142,0,0,0,.391.041,2.039,2.039,0,0,0,1.415-.584,2.282,2.282,0,0,0,.248-.3,1.981,1.981,0,0,0,.183-.343,1.947,1.947,0,0,0,.112-.375,1.946,1.946,0,0,0,0-.784A2.127,2.127,0,0,0,660.491,236.7Z" transform="translate(-525.368 -180.605)" fill="url(#linear-gradient)"/>
      <path id="Tracé_370" data-name="Tracé 370" d="M669.616,236.7a2.012,2.012,0,0,0-.183-.344,2.151,2.151,0,0,0-.248-.3,1.771,1.771,0,0,0-.3-.248,2.309,2.309,0,0,0-.343-.184,2.1,2.1,0,0,0-.376-.112,1.98,1.98,0,0,0-1.15.112,2.31,2.31,0,0,0-.344.184,2.274,2.274,0,0,0-.312.248,2.008,2.008,0,0,0,0,2.829,2.417,2.417,0,0,0,.312.248,1.764,1.764,0,0,0,.344.184,2.092,2.092,0,0,0,.367.111,2.209,2.209,0,0,0,.392.041,2.065,2.065,0,0,0,.391-.041,2.034,2.034,0,0,0,.376-.111,1.762,1.762,0,0,0,.343-.184,1.859,1.859,0,0,0,.3-.248,1.757,1.757,0,0,0,.248-.3,2.161,2.161,0,0,0,.3-.719,1.914,1.914,0,0,0-.12-1.159Z" transform="translate(-526.565 -180.605)" fill="url(#linear-gradient)"/>
      <path id="Tracé_371" data-name="Tracé 371" d="M677.823,236.053a1.778,1.778,0,0,0-.3-.248,1.736,1.736,0,0,0-.343-.184,2.1,2.1,0,0,0-.375-.112,2.014,2.014,0,0,0-1.8.544,2.1,2.1,0,0,0-.248.3,2.023,2.023,0,0,0-.184.344,2.235,2.235,0,0,0-.12.375,2.4,2.4,0,0,0,0,.784,2.027,2.027,0,0,0,.12.375,1.982,1.982,0,0,0,.184.343,1.718,1.718,0,0,0,.248.3,2.018,2.018,0,0,0,1.407.584,2.079,2.079,0,0,0,.392-.041,2.023,2.023,0,0,0,.375-.111,1.734,1.734,0,0,0,.343-.184,1.866,1.866,0,0,0,.3-.248,1.8,1.8,0,0,0,.248-.3,2.046,2.046,0,0,0,.184-.343,2.006,2.006,0,0,0,.111-.375,1.623,1.623,0,0,0,.04-.392A2,2,0,0,0,677.823,236.053Z" transform="translate(-527.698 -180.605)" fill="url(#linear-gradient)"/>
    </g>
  </g>
</svg>
