<svg xmlns="http://www.w3.org/2000/svg" xmlns:xlink="http://www.w3.org/1999/xlink" width="190.296" height="190.77" viewBox="0 0 190.296 190.77">
  <defs>
    <linearGradient id="linear-gradient" y1="0.472" x2="1.053" y2="0.366" gradientUnits="objectBoundingBox">
      <stop offset="0" stop-color="#009640"/>
      <stop offset="1" stop-color="#004318"/>
    </linearGradient>
  </defs>
  <g id="Groupe_157" data-name="Groupe 157" transform="translate(-633.928 -132.163)">
    <path id="Tracé_372" data-name="Tracé 372" d="M728.884,322.933a3.051,3.051,0,0,1-3.053-3.053h0a3.056,3.056,0,0,1,3.053-3.053h0a3.056,3.056,0,0,1,3.053,3.053h0a3.049,3.049,0,0,1-3.044,3.053h-.009Zm13.023-3.917a3.868,3.868,0,0,1-.044-.541h0a3.054,3.054,0,0,1,2.52-3h0a3.063,3.063,0,0,1,3.542,2.486h0a3.646,3.646,0,0,1,.044.532h0a3.062,3.062,0,0,1-2.521,3h0a3.748,3.748,0,0,1-.532.044h0A3.055,3.055,0,0,1,741.907,319.016ZM712.354,321.2a3.053,3.053,0,0,1-2.53-2.992h0a2.913,2.913,0,0,1,.052-.541h0a3.055,3.055,0,0,1,3.533-2.477h0a3.046,3.046,0,0,1,2.521,3h0a2.3,2.3,0,0,1-.044.541h0a3.061,3.061,0,0,1-3,2.521h0A2.751,2.751,0,0,1,712.354,321.2Zm45.236-5.827a2.99,2.99,0,0,1-.183-1.055h0a3.053,3.053,0,0,1,2.006-2.861h0a3.056,3.056,0,0,1,3.917,1.823h0a3.151,3.151,0,0,1,.183,1.047h0a3.056,3.056,0,0,1-2.006,2.87h0a3.151,3.151,0,0,1-1.047.183h0A3.055,3.055,0,0,1,757.591,315.37ZM696.3,317.088h0a3.067,3.067,0,0,1-2.067-2.9h0a3.477,3.477,0,0,1,.166-.977h0a3.052,3.052,0,0,1,3.882-1.893h0a3.056,3.056,0,0,1,2.067,2.9h0a3.537,3.537,0,0,1-.166.986h0a3.057,3.057,0,0,1-2.887,2.059h0A3.049,3.049,0,0,1,696.3,317.088Zm-15.2-6.717a3.077,3.077,0,0,1-1.579-2.669h0a3.056,3.056,0,0,1,.384-1.483h0a3.043,3.043,0,0,1,4.143-1.2h0a3.035,3.035,0,0,1,1.579,2.66h0a3.046,3.046,0,0,1-.375,1.483h0a3.055,3.055,0,0,1-2.678,1.579h0A3.086,3.086,0,0,1,681.109,310.372Zm91.275-1.335a3.1,3.1,0,0,1-.41-1.518h0a3.066,3.066,0,0,1,1.526-2.652h0a3.051,3.051,0,0,1,4.17,1.108h0a3.009,3.009,0,0,1,.41,1.518h0a3.043,3.043,0,0,1-1.518,2.66h0a3.04,3.04,0,0,1-1.526.41h0A3.065,3.065,0,0,1,772.385,309.037ZM667.336,301a3.062,3.062,0,0,1-1.108-2.355h0a3.113,3.113,0,0,1,.7-1.945h0a3.049,3.049,0,0,1,4.3-.4h0a3.034,3.034,0,0,1,1.108,2.355h0a3.022,3.022,0,0,1-.7,1.936h0a3.034,3.034,0,0,1-2.355,1.108h0A3.062,3.062,0,0,1,667.336,301Zm118.525-.776a3.055,3.055,0,0,1-.715-1.936h0a3.059,3.059,0,0,1,1.09-2.364h0a3.054,3.054,0,0,1,4.3.375h0a2.977,2.977,0,0,1,.715,1.936h0a3.019,3.019,0,0,1-1.09,2.364h0a3.021,3.021,0,0,1-1.954.715h0A3.052,3.052,0,0,1,785.861,300.227ZM655.552,289.237a3.045,3.045,0,0,1-.7-1.945h0a3.025,3.025,0,0,1,1.1-2.355h0a3.048,3.048,0,0,1,4.3.4h0a3.081,3.081,0,0,1,.707,1.936h0a3.064,3.064,0,0,1-1.108,2.364h0a3.062,3.062,0,0,1-1.945.7h0A3.053,3.053,0,0,1,655.552,289.237Zm142.059-.017a3.038,3.038,0,0,1-1.082-2.364h0a2.993,2.993,0,0,1,.715-1.936h0a3.044,3.044,0,0,1,4.292-.375h0a3.055,3.055,0,0,1,1.1,2.364h0a3.078,3.078,0,0,1-.715,1.936h0a3.053,3.053,0,0,1-2.346,1.09h0A3.061,3.061,0,0,1,797.611,289.219ZM646.157,275.481a3.032,3.032,0,0,1-.384-1.483h0a3.06,3.06,0,0,1,1.561-2.669h0a3.052,3.052,0,0,1,4.151,1.186h0a2.944,2.944,0,0,1,.393,1.483h0a3.05,3.05,0,0,1-1.57,2.669h0a3.032,3.032,0,0,1-1.483.384h0A3.05,3.05,0,0,1,646.157,275.481Zm161.127.864a3.039,3.039,0,0,1-1.518-2.652h0a3.009,3.009,0,0,1,.41-1.518h0a3.059,3.059,0,0,1,4.169-1.117h0a3.066,3.066,0,0,1,1.526,2.652h0a2.963,2.963,0,0,1-.41,1.518h0v.009h0a3.055,3.055,0,0,1-2.643,1.518h0A3.071,3.071,0,0,1,807.284,276.344Zm-167.9-16.05a3.114,3.114,0,0,1-.166-1.012h0a3.039,3.039,0,0,1,2.05-2.861h0a3.049,3.049,0,0,1,3.89,1.884h0a3.152,3.152,0,0,1,.166,1.012h0a3.067,3.067,0,0,1-2.059,2.87h0a3.05,3.05,0,0,1-.994.166h0A3.057,3.057,0,0,1,639.38,260.294Zm175.206,1.692a3.056,3.056,0,0,1-2.015-2.861h0a2.922,2.922,0,0,1,.192-1.047h0a3.044,3.044,0,0,1,3.908-1.832h0a3.056,3.056,0,0,1,2.006,2.87h0a2.763,2.763,0,0,1-.183,1.047h0a3.047,3.047,0,0,1-2.87,2.006h0A2.9,2.9,0,0,1,814.585,261.987ZM635.3,244.2a3.4,3.4,0,0,1-.044-.506h0a3.057,3.057,0,0,1,2.556-3.009h0a3.053,3.053,0,0,1,3.515,2.512h0a3.294,3.294,0,0,1,.035.506h0a3.032,3.032,0,0,1-2.547,3h0a2.479,2.479,0,0,1-.506.044h0A3.056,3.056,0,0,1,635.3,244.2Zm183.955,2.381a3.052,3.052,0,0,1-2.521-2.992h0a2.775,2.775,0,0,1,.044-.541h0a3.054,3.054,0,0,1,3.533-2.486h0a3.068,3.068,0,0,1,2.53,2.992h0a2.771,2.771,0,0,1-.052.541h0a3.053,3.053,0,0,1-3,2.53h0A3.748,3.748,0,0,1,819.252,246.582Zm-185.324-18.92a3.045,3.045,0,0,1,3.044-3.062h0a3.064,3.064,0,0,1,3.062,3.053h0a3.056,3.056,0,0,1-3.053,3.053h-.009A3.047,3.047,0,0,1,633.928,227.663Zm184.19-.122v-.087h0c0-.052-.009-.1-.009-.14h0a3.064,3.064,0,0,1,3.053-3.062h0a3.062,3.062,0,0,1,3.062,3.044h0c0,.044-.009.087-.009.131h0c0,.035.009.079.009.113h0a3.051,3.051,0,0,1-3.053,3.053h0A3.045,3.045,0,0,1,818.118,227.54ZM637.775,214.622a3.056,3.056,0,0,1-2.565-3h0a3.307,3.307,0,0,1,.044-.506h0a3.052,3.052,0,0,1,3.507-2.521h0a3.064,3.064,0,0,1,2.565,3h0a3.388,3.388,0,0,1-.044.506h0a3.057,3.057,0,0,1-3.009,2.556h0A3.178,3.178,0,0,1,637.775,214.622Zm178.956-2.809a2.883,2.883,0,0,1-.044-.541h0a3.053,3.053,0,0,1,2.521-3h0a3.047,3.047,0,0,1,3.533,2.469h0a2.907,2.907,0,0,1,.052.541h0a3.046,3.046,0,0,1-2.522,3h0a2.9,2.9,0,0,1-.54.052h0A3.061,3.061,0,0,1,816.731,211.813ZM641.194,198.886a3.067,3.067,0,0,1-2.067-2.9h0a3.19,3.19,0,0,1,.166-.977h0a3.063,3.063,0,0,1,3.882-1.9h0a3.047,3.047,0,0,1,2.059,2.9h0a2.948,2.948,0,0,1-.166.977h0a3.048,3.048,0,0,1-2.887,2.067h0A3.244,3.244,0,0,1,641.194,198.886Zm171.481-2.093h0a3.151,3.151,0,0,1-.183-1.047h0a3.055,3.055,0,0,1,2.006-2.87h0a3.055,3.055,0,0,1,3.917,1.814h0a3.151,3.151,0,0,1,.183,1.047h0a3.055,3.055,0,0,1-2.006,2.87h0a2.922,2.922,0,0,1-1.047.192h0A3.055,3.055,0,0,1,812.675,196.793Zm-165.453-12.84a3.037,3.037,0,0,1-1.57-2.66h0a3.073,3.073,0,0,1,.383-1.492h0a3.05,3.05,0,0,1,4.153-1.186h0a3.027,3.027,0,0,1,1.57,2.66h0a3.089,3.089,0,0,1-.384,1.492v-.009a3.045,3.045,0,0,1-2.678,1.579h0A3.024,3.024,0,0,1,647.222,183.953Zm158.842-1.23a3.009,3.009,0,0,1-.41-1.518h0a3.053,3.053,0,0,1,1.518-2.66h0a3.051,3.051,0,0,1,4.169,1.108h0a3,3,0,0,1,.419,1.518h0a3.056,3.056,0,0,1-1.519,2.652h0a3.077,3.077,0,0,1-1.534.419h0A3.062,3.062,0,0,1,806.063,182.723ZM797.1,170.005h0a3.051,3.051,0,0,1-.724-1.936h0a3.068,3.068,0,0,1,1.082-2.373h0a3.065,3.065,0,0,1,4.309.366h0a3.091,3.091,0,0,1,.715,1.936h0a3.038,3.038,0,0,1-1.082,2.364h0a3.029,3.029,0,0,1-1.971.724h0A3.038,3.038,0,0,1,797.1,170.005Zm-141.3.331a3.084,3.084,0,0,1-1.116-2.355h0a3.037,3.037,0,0,1,.707-1.945h0a3.045,3.045,0,0,1,4.292-.41h0a3.071,3.071,0,0,1,1.117,2.355h0a3.071,3.071,0,0,1-.7,1.936H660.1a3.043,3.043,0,0,1-2.355,1.117h0A3.071,3.071,0,0,1,655.8,170.336Zm130.266-11.313h0a3.046,3.046,0,0,1-1.09-2.364h0a3.014,3.014,0,0,1,.707-1.936h0a3.047,3.047,0,0,1,4.3-.384h0a3.043,3.043,0,0,1,1.1,2.364h0a3.091,3.091,0,0,1-.715,1.936h0a3.068,3.068,0,0,1-2.346,1.09h0A3.077,3.077,0,0,1,786.071,159.023Zm-119.32-.488a2.993,2.993,0,0,1-.706-1.945h0a3.025,3.025,0,0,1,1.1-2.355h0a3.056,3.056,0,0,1,4.3.393h0a3.086,3.086,0,0,1,.707,1.945h0a3.034,3.034,0,0,1-1.108,2.355h0a2.989,2.989,0,0,1-1.945.707h0A3.039,3.039,0,0,1,666.751,158.535Zm12.954-9.551a3.032,3.032,0,0,1-.384-1.483h0a3.027,3.027,0,0,1,1.57-2.66h0a3.05,3.05,0,0,1,4.152,1.178h0a3.09,3.09,0,0,1,.384,1.492h0a3.037,3.037,0,0,1-1.57,2.66h0a3.043,3.043,0,0,1-1.483.393h0A3.041,3.041,0,0,1,679.705,148.983Zm93.6,1.125h0a3.055,3.055,0,0,1-1.526-2.652h0a3.089,3.089,0,0,1,.4-1.518h0a3.064,3.064,0,0,1,4.169-1.125h.009a3.066,3.066,0,0,1,1.526,2.652h0a2.986,2.986,0,0,1-.41,1.518h0a3.042,3.042,0,0,1-2.643,1.535h0A3.017,3.017,0,0,1,773.309,150.108Zm-79.124-8.147a2.991,2.991,0,0,1-.175-1.021h0a3.05,3.05,0,0,1,2.059-2.861h0v-.009h0a3.051,3.051,0,0,1,3.882,1.893h0a2.942,2.942,0,0,1,.174,1.012h0a3.06,3.06,0,0,1-2.059,2.87h0a3.087,3.087,0,0,1-.994.166h0A3.049,3.049,0,0,1,694.185,141.961Zm65.011,1.6a3.065,3.065,0,0,1-2.015-2.861h0a3.2,3.2,0,0,1,.183-1.055h0a3.062,3.062,0,0,1,3.908-1.832h0a3.052,3.052,0,0,1,2.015,2.861h0a2.99,2.99,0,0,1-.183,1.055h0a3.055,3.055,0,0,1-2.87,2.015h0A3.1,3.1,0,0,1,759.2,143.558Zm-49.554-6.088a2.907,2.907,0,0,1-.052-.541h0a3.052,3.052,0,0,1,2.52-3h0a3.056,3.056,0,0,1,3.542,2.469h0a3.756,3.756,0,0,1,.044.541h0a3.053,3.053,0,0,1-2.512,3h0a2.91,2.91,0,0,1-.541.052h0A3.062,3.062,0,0,1,709.642,137.469Zm34.516,2.1a3.061,3.061,0,0,1-2.53-2.992h0a2.883,2.883,0,0,1,.044-.541h0a3.056,3.056,0,0,1,3.533-2.486h0a3.054,3.054,0,0,1,2.53,2.992h0a3.876,3.876,0,0,1-.044.541h0a3.063,3.063,0,0,1-3.009,2.53h0A3.53,3.53,0,0,1,744.158,139.571ZM725.6,135.341v-.122h0a3.043,3.043,0,0,1,2.931-3.053h0a3.052,3.052,0,0,1,3.175,2.922h0v.122h0a3.055,3.055,0,0,1-2.931,3.053h-.122A3.054,3.054,0,0,1,725.6,135.341Z" transform="translate(0 0)" fill="url(#linear-gradient)"/>
    <g id="Groupe_156" data-name="Groupe 156" transform="translate(671.281 163.298)">
      <path id="Tracé_373" data-name="Tracé 373" d="M768.2,284.262H680.653V171.76h81.358v18.951a2.194,2.194,0,0,0,2.195,2.194h16.326v47.772a2.031,2.031,0,0,0,1.747,2.056,1.954,1.954,0,0,0,2.155-1.941V189.829L765.3,168l-.127-.146H678.8a2.055,2.055,0,0,0-2.054,2.055V284.925a3.24,3.24,0,0,0,3.24,3.24h88.33a1.954,1.954,0,0,0,1.942-2.155A2.032,2.032,0,0,0,768.2,284.262Zm-2.291-109.636L778.519,189h-12.6Z" transform="translate(-676.75 -167.857)" fill="url(#linear-gradient)"/>
      <path id="Tracé_374" data-name="Tracé 374" d="M813.064,273.125A16.923,16.923,0,1,0,785.4,286.188v18.187a3.263,3.263,0,0,0,3.257,3.256,3.264,3.264,0,0,0,2.018-.709l5.735-4.554a.75.75,0,0,1,.973.03l4.631,4.168a3.253,3.253,0,0,0,5.428-2.417v-18.46A16.866,16.866,0,0,0,813.064,273.125ZM789.3,288.59a16.747,16.747,0,0,0,14.239-.267v14.366l-3.548-3.192a4.646,4.646,0,0,0-6.011-.186l-4.681,3.717Zm6.842-2.444a13.02,13.02,0,1,1,13.02-13.02A13.036,13.036,0,0,1,796.141,286.146Z" transform="translate(-689.838 -179.141)" fill="url(#linear-gradient)"/>
      <path id="Tracé_375" data-name="Tracé 375" d="M713.349,250.617a1.954,1.954,0,0,0,1.951-1.951,19.716,19.716,0,0,1,39.432,0,1.952,1.952,0,0,0,3.9,0,23.619,23.619,0,0,0-47.238,0A1.954,1.954,0,0,0,713.349,250.617Z" transform="translate(-681.175 -175.161)" fill="url(#linear-gradient)"/>
      <path id="Tracé_376" data-name="Tracé 376" d="M735.555,215.77a18.228,18.228,0,1,0-18.228-18.228A18.249,18.249,0,0,0,735.555,215.77ZM721.23,197.542a14.325,14.325,0,1,1,14.325,14.325A14.341,14.341,0,0,1,721.23,197.542Z" transform="translate(-681.933 -169.32)" fill="url(#linear-gradient)"/>
      <path id="Tracé_377" data-name="Tracé 377" d="M766.511,259.653H698.656a1.951,1.951,0,1,0,0,3.9h67.854a1.951,1.951,0,1,0,0-3.9Z" transform="translate(-679.299 -179.581)" fill="url(#linear-gradient)"/>
      <path id="Tracé_378" data-name="Tracé 378" d="M698.656,276.652h63.886a1.951,1.951,0,1,0,0-3.9H698.656a1.951,1.951,0,1,0,0,3.9Z" transform="translate(-679.299 -181.254)" fill="url(#linear-gradient)"/>
      <path id="Tracé_379" data-name="Tracé 379" d="M698.656,289.748h67.854a1.951,1.951,0,1,0,0-3.9H698.656a1.951,1.951,0,1,0,0,3.9Z" transform="translate(-679.299 -182.927)" fill="url(#linear-gradient)"/>
      <path id="Tracé_380" data-name="Tracé 380" d="M807,270.677a1.642,1.642,0,0,0-1.566-1.137h-5.116l-1.58-4.866a1.647,1.647,0,0,0-3.132,0l-1.58,4.866h-5.116a1.646,1.646,0,0,0-.967,2.978l4.138,3.006-1.58,4.865a1.64,1.64,0,0,0,.6,1.841,1.67,1.67,0,0,0,1.936,0l4.137-3.007,4.138,3.007a1.646,1.646,0,0,0,2.533-1.841l-1.58-4.865,4.137-3.006A1.644,1.644,0,0,0,807,270.677Zm-8.237,4.728.385,1.184-1.007-.732a1.643,1.643,0,0,0-1.935,0l-1.007.731.386-1.184a1.645,1.645,0,0,0-.6-1.84l-1.007-.731h1.245a1.642,1.642,0,0,0,1.565-1.137l.385-1.184.385,1.184a1.642,1.642,0,0,0,1.565,1.137h1.245l-1.007.731A1.643,1.643,0,0,0,798.758,275.4Z" transform="translate(-690.865 -180.078)" fill="url(#linear-gradient)"/>
    </g>
  </g>
</svg>
