<svg xmlns="http://www.w3.org/2000/svg" xmlns:xlink="http://www.w3.org/1999/xlink" width="203.363" height="203.869" viewBox="0 0 203.363 203.869">
  <defs>
    <linearGradient id="linear-gradient" y1="0.879" x2="1.21" y2="0.226" gradientUnits="objectBoundingBox">
      <stop offset="0" stop-color="#009640"/>
      <stop offset="1" stop-color="#004318"/>
    </linearGradient>
  </defs>
  <g id="Groupe_152" data-name="Groupe 152" transform="translate(-338.658 -78.721)">
    <path id="Tracé_327" data-name="Tracé 327" d="M436.881,279.328a3.26,3.26,0,0,1,3.263-3.263h0a3.266,3.266,0,0,1,3.263,3.263h0a3.266,3.266,0,0,1-3.263,3.263h0A3.26,3.26,0,0,1,436.881,279.328Zm17.18-.923a3.083,3.083,0,0,1-.047-.578h0a3.255,3.255,0,0,1,2.694-3.207v.009a3.251,3.251,0,0,1,3.775,2.638h0a3.109,3.109,0,0,1,.056.578h0a3.272,3.272,0,0,1-2.7,3.207h0a3.9,3.9,0,0,1-.569.047h0A3.255,3.255,0,0,1,454.061,278.4Zm-31.591,2.34a3.271,3.271,0,0,1-2.694-3.207h0a4.133,4.133,0,0,1,.047-.578h0a3.274,3.274,0,0,1,3.785-2.647h0a3.264,3.264,0,0,1,2.694,3.207h0a4.133,4.133,0,0,1-.047.578h0a3.273,3.273,0,0,1-3.216,2.694h0A4.008,4.008,0,0,1,422.47,280.744Zm48.352-6.236a3.209,3.209,0,0,1-.205-1.128h0a3.284,3.284,0,0,1,2.153-3.058h0a3.256,3.256,0,0,1,4.176,1.948h0a3.16,3.16,0,0,1,.205,1.119h0A3.287,3.287,0,0,1,475,276.456h0a3.326,3.326,0,0,1-1.119.2h0A3.253,3.253,0,0,1,470.822,274.508Zm-65.495,1.836a3.278,3.278,0,0,1-2.209-3.1h0a3.151,3.151,0,0,1,.177-1.044h0a3.269,3.269,0,0,1,4.148-2.023h0a3.245,3.245,0,0,1,2.2,3.095h0a3.2,3.2,0,0,1-.177,1.053h0a3.249,3.249,0,0,1-3.085,2.2h0A3.2,3.2,0,0,1,405.327,276.345Zm81.3-8.6a3.215,3.215,0,0,1-.438-1.622h0a3.257,3.257,0,0,1,1.631-2.834h0a3.255,3.255,0,0,1,4.456,1.193h0a3.158,3.158,0,0,1,.438,1.613h0a3.26,3.26,0,0,1-1.631,2.843h0a3.224,3.224,0,0,1-1.631.438h0A3.273,3.273,0,0,1,486.631,267.741Zm37.3-34.938a3.276,3.276,0,0,1-1.631-2.834h0a3.325,3.325,0,0,1,.447-1.622h0a3.267,3.267,0,0,1,4.456-1.193h0A3.28,3.28,0,0,1,528.831,230h0a3.416,3.416,0,0,1-.438,1.622h0a3.267,3.267,0,0,1-2.834,1.622h0A3.249,3.249,0,0,1,523.927,232.8ZM344.493,215.651a3.107,3.107,0,0,1-.186-1.081h0a3.278,3.278,0,0,1,2.2-3.067h0a3.261,3.261,0,0,1,4.148,2.023h0a3.425,3.425,0,0,1,.186,1.044h0a3.269,3.269,0,0,1-2.2,3.1h0a3.259,3.259,0,0,1-1.063.177h0A3.258,3.258,0,0,1,344.493,215.651Zm187.227,1.808a3.244,3.244,0,0,1-2.144-3.058h0a3.327,3.327,0,0,1,.2-1.119h0a3.267,3.267,0,0,1,4.185-1.958h0a3.265,3.265,0,0,1,2.144,3.067h0a3.368,3.368,0,0,1-.2,1.119h0a3.265,3.265,0,0,1-3.067,2.144h0A3.146,3.146,0,0,1,531.72,217.459Zm-191.59-19.007a3.633,3.633,0,0,1-.047-.541h0a3.267,3.267,0,0,1,2.731-3.216h0a3.248,3.248,0,0,1,3.747,2.685h0a2.649,2.649,0,0,1,.047.541h0a3.266,3.266,0,0,1-2.722,3.216h0a3.6,3.6,0,0,1-.541.037h0A3.266,3.266,0,0,1,340.131,198.452ZM536.717,201a3.27,3.27,0,0,1-2.7-3.2h0a4.019,4.019,0,0,1,.047-.578h0a3.273,3.273,0,0,1,3.785-2.657h0a3.261,3.261,0,0,1,2.694,3.2h0a2.958,2.958,0,0,1-.047.578h0a3.273,3.273,0,0,1-3.216,2.7h0A3.775,3.775,0,0,1,536.717,201ZM338.658,180.769a3.266,3.266,0,0,1,3.263-3.263h0a3.26,3.26,0,0,1,3.263,3.263h0a3.252,3.252,0,0,1-3.253,3.263h0A3.274,3.274,0,0,1,338.658,180.769Zm196.838-.121v-.1h0v-.14h0a3.272,3.272,0,0,1,3.253-3.272h0a3.26,3.26,0,0,1,3.272,3.253h0v.14h0v.121h0a3.26,3.26,0,0,1-3.263,3.263h0A3.26,3.26,0,0,1,535.5,180.648ZM342.778,166.842a3.26,3.26,0,0,1-2.741-3.216h0a3.407,3.407,0,0,1,.047-.531h0a3.262,3.262,0,0,1,3.747-2.694h0a3.257,3.257,0,0,1,2.731,3.207h0a3.516,3.516,0,0,1-.037.541h0a3.267,3.267,0,0,1-3.216,2.731h0A3.4,3.4,0,0,1,342.778,166.842Zm191.245-3a3.114,3.114,0,0,1-.056-.578h0a3.271,3.271,0,0,1,2.694-3.207h0a3.26,3.26,0,0,1,3.785,2.647h0a2.926,2.926,0,0,1,.047.569h0a3.255,3.255,0,0,1-2.685,3.207h0a3.109,3.109,0,0,1-.578.056h0A3.255,3.255,0,0,1,534.023,163.841ZM346.432,150.026a3.265,3.265,0,0,1-2.209-3.1h0a3.15,3.15,0,0,1,.177-1.044h0a3.274,3.274,0,0,1,4.148-2.032h0a3.269,3.269,0,0,1,2.2,3.1h0a3.15,3.15,0,0,1-.177,1.044h0a3.276,3.276,0,0,1-3.085,2.209h0A3.421,3.421,0,0,1,346.432,150.026Zm154.825-42.6a3.3,3.3,0,0,1-1.175-2.489h0a3.278,3.278,0,0,1,.764-2.107h0a3.256,3.256,0,0,1,4.6-.41h0a3.223,3.223,0,0,1,1.165,2.48h0a3.242,3.242,0,0,1-.755,2.116h0a3.279,3.279,0,0,1-2.508,1.165h0A3.219,3.219,0,0,1,501.257,107.425ZM387.588,96.7a3.143,3.143,0,0,1-.41-1.585h0a3.26,3.26,0,0,1,1.678-2.852h0a3.271,3.271,0,0,1,4.437,1.268h0a3.276,3.276,0,0,1,.41,1.594h0a3.264,3.264,0,0,1-1.678,2.843h0a3.241,3.241,0,0,1-1.585.41h0A3.241,3.241,0,0,1,387.588,96.7Zm100.032,1.2h0a3.255,3.255,0,0,1-1.641-2.834h0a3.312,3.312,0,0,1,.438-1.622h0a3.263,3.263,0,0,1,4.456-1.193h0a3.212,3.212,0,0,1,1.631,2.824h0a3.309,3.309,0,0,1-.429,1.631h0a3.276,3.276,0,0,1-2.834,1.631h0A3.215,3.215,0,0,1,487.619,97.9Zm-84.557-8.706a3.2,3.2,0,0,1-.186-1.091h0a3.278,3.278,0,0,1,2.2-3.067h0a3.261,3.261,0,0,1,4.148,2.023h0A3.15,3.15,0,0,1,409.4,88.1h0a3.261,3.261,0,0,1-2.191,3.1h0a3.313,3.313,0,0,1-1.072.177h0A3.259,3.259,0,0,1,403.062,89.192ZM472.537,90.9h0a3.271,3.271,0,0,1-2.153-3.058h0a3.2,3.2,0,0,1,.2-1.128h0a3.256,3.256,0,0,1,4.176-1.948h0v-.009h0a3.275,3.275,0,0,1,2.153,3.058h0a3.42,3.42,0,0,1-.2,1.128h0a3.274,3.274,0,0,1-3.067,2.153h0A3.274,3.274,0,0,1,472.537,90.9Zm-52.966-6.507a4.133,4.133,0,0,1-.047-.578h0a3.262,3.262,0,0,1,2.694-3.207h0a3.251,3.251,0,0,1,3.775,2.638h0a3.109,3.109,0,0,1,.056.578h0a3.262,3.262,0,0,1-2.694,3.207h0a2.963,2.963,0,0,1-.578.047h0A3.27,3.27,0,0,1,419.571,84.391Zm36.9,2.247a3.253,3.253,0,0,1-2.7-3.2h0a3.085,3.085,0,0,1,.047-.578h0a3.266,3.266,0,0,1,3.775-2.657h0a3.264,3.264,0,0,1,2.7,3.2h0a4.133,4.133,0,0,1-.047.578h0a3.273,3.273,0,0,1-3.216,2.7h0A3.772,3.772,0,0,1,456.466,86.638Zm-19.837-4.521v-.131h0a3.251,3.251,0,0,1,3.123-3.263h0a3.255,3.255,0,0,1,3.393,3.123h0a.614.614,0,0,1,.009.131h0a3.265,3.265,0,0,1-3.132,3.263h-.13A3.263,3.263,0,0,1,436.629,82.117Z" fill="url(#linear-gradient)"/>
    <g id="Groupe_151" data-name="Groupe 151" transform="translate(345.441 90.808)">
      <path id="Tracé_328" data-name="Tracé 328" d="M445.637,202.949a29.073,29.073,0,0,0-29.04,29.04,2.33,2.33,0,1,0,4.661,0,24.379,24.379,0,0,1,48.758,0,2.33,2.33,0,1,0,4.661,0A29.073,29.073,0,0,0,445.637,202.949Z" transform="translate(-350.728 -99.234)" fill="url(#linear-gradient)"/>
      <path id="Tracé_329" data-name="Tracé 329" d="M445.832,193.327a22.4,22.4,0,1,0-22.395-22.4A22.421,22.421,0,0,0,445.832,193.327Zm0-40.129A17.734,17.734,0,1,1,428.1,170.932,17.754,17.754,0,0,1,445.832,153.2Z" transform="translate(-351.192 -95.544)" fill="url(#linear-gradient)"/>
      <path id="Tracé_330" data-name="Tracé 330" d="M447.291,132.841a2.33,2.33,0,0,0,2.33-2.33V94.018a2.33,2.33,0,1,0-4.661,0V130.51A2.33,2.33,0,0,0,447.291,132.841Z" transform="translate(-352.652 -91.688)" fill="url(#linear-gradient)"/>
      <path id="Tracé_331" data-name="Tracé 331" d="M447.291,244.372a2.33,2.33,0,0,0-2.33,2.33v36.491a2.33,2.33,0,1,0,4.661,0V246.7A2.33,2.33,0,0,0,447.291,244.372Z" transform="translate(-352.652 -102.044)" fill="url(#linear-gradient)"/>
      <path id="Tracé_332" data-name="Tracé 332" d="M537.1,190.757H474.539a2.33,2.33,0,1,0,0,4.661H537.1a2.33,2.33,0,1,0,0-4.661Z" transform="translate(-354.5 -98.408)" fill="url(#linear-gradient)"/>
      <path id="Tracé_333" data-name="Tracé 333" d="M353.321,193.087a2.33,2.33,0,0,0,2.33,2.33H412.9a2.33,2.33,0,1,0,0-4.661H355.651A2.33,2.33,0,0,0,353.321,193.087Z" transform="translate(-346.436 -98.408)" fill="url(#linear-gradient)"/>
      <path id="Tracé_334" data-name="Tracé 334" d="M367.282,158.8a4.94,4.94,0,0,1,.994,1.052h-3.07a2.33,2.33,0,1,0,0,4.661h3.972v2.91a9.331,9.331,0,0,0,9.321,9.321h1.615a9.36,9.36,0,0,0,9.32-9.187l.043-3.044h2.447a2.33,2.33,0,1,0,0-4.661h-.953a6.1,6.1,0,0,1,.874-.8,20.231,20.231,0,1,0-24.564-.248Zm17.492,8.69a4.68,4.68,0,0,1-4.66,4.594H378.5a4.665,4.665,0,0,1-4.66-4.66v-2.91h10.977Zm-15.431-36.243a15.389,15.389,0,0,1,10.364-3.968,16.309,16.309,0,0,1,1.8.1,15.57,15.57,0,0,1,7.543,27.939,10.533,10.533,0,0,0-3.492,4.535H373.4a9.52,9.52,0,0,0-3.249-4.725,15.571,15.571,0,0,1-.808-23.88Z" transform="translate(-346.855 -93.786)" fill="url(#linear-gradient)"/>
      <path id="Tracé_335" data-name="Tracé 335" d="M355.837,136.119a2.331,2.331,0,0,0-2.33-2.33h-5.242a2.33,2.33,0,0,0,0,4.661h5.242A2.33,2.33,0,0,0,355.837,136.119Z" transform="translate(-345.935 -94.544)" fill="url(#linear-gradient)"/>
      <path id="Tracé_336" data-name="Tracé 336" d="M404.788,136.119a2.331,2.331,0,0,0,2.33,2.33h5.243a2.33,2.33,0,0,0,0-4.661h-5.243A2.331,2.331,0,0,0,404.788,136.119Z" transform="translate(-349.927 -94.544)" fill="url(#linear-gradient)"/>
      <path id="Tracé_337" data-name="Tracé 337" d="M381.733,115.347a2.33,2.33,0,0,0,2.33-2.33v-5.242a2.33,2.33,0,1,0-4.661,0v5.242A2.33,2.33,0,0,0,381.733,115.347Z" transform="translate(-348.205 -92.621)" fill="url(#linear-gradient)"/>
      <path id="Tracé_338" data-name="Tracé 338" d="M360.865,119.565a2.331,2.331,0,0,0,3.627-2.928l-3.292-4.078a2.33,2.33,0,1,0-3.626,2.928Z" transform="translate(-346.689 -93.045)" fill="url(#linear-gradient)"/>
      <path id="Tracé_339" data-name="Tracé 339" d="M399.532,121.22a2.324,2.324,0,0,0,1.463-.516l4.078-3.292a2.33,2.33,0,0,0-2.927-3.627l-4.079,3.292a2.33,2.33,0,0,0,1.465,4.144Z" transform="translate(-349.412 -93.152)" fill="url(#linear-gradient)"/>
      <path id="Tracé_340" data-name="Tracé 340" d="M538.911,117.753h-57.07a2.33,2.33,0,0,0-2.33,2.33V154.94a2.33,2.33,0,0,0,2.33,2.33h8.569l-.575,4.5a2.33,2.33,0,0,0,3.86,2.037l7.354-6.536h37.861a2.33,2.33,0,0,0,2.33-2.33V120.083A2.33,2.33,0,0,0,538.911,117.753Zm-2.33,34.857H500.163a2.33,2.33,0,0,0-1.548.588l-3.367,2.993.122-.955a2.33,2.33,0,0,0-2.312-2.626h-8.886v-30.2h52.409Z" transform="translate(-354.995 -93.456)" fill="url(#linear-gradient)"/>
      <path id="Tracé_341" data-name="Tracé 341" d="M495.928,134.435H527.08a2.33,2.33,0,1,0,0-4.661H495.928a2.33,2.33,0,1,0,0,4.661Z" transform="translate(-355.95 -94.271)" fill="url(#linear-gradient)"/>
      <path id="Tracé_342" data-name="Tracé 342" d="M495.928,146.306H527.08a2.33,2.33,0,1,0,0-4.661H495.928a2.33,2.33,0,1,0,0,4.661Z" transform="translate(-355.95 -95.076)" fill="url(#linear-gradient)"/>
      <g id="Groupe_150" data-name="Groupe 150" transform="translate(125.641 116.89)">
        <path id="Tracé_343" data-name="Tracé 343" d="M508.528,227.607a8.337,8.337,0,1,0,8.337,8.337A8.347,8.347,0,0,0,508.528,227.607Zm0,12.014a3.676,3.676,0,1,1,3.676-3.676A3.681,3.681,0,0,1,508.528,239.621Z" transform="translate(-482.038 -217.797)" fill="url(#linear-gradient)"/>
        <path id="Tracé_344" data-name="Tracé 344" d="M524.909,241.229a2.313,2.313,0,0,0-.412-.5,18.155,18.155,0,1,0-34.97-1.464l-8.27,12.942a3.854,3.854,0,0,0,2,5.589l5.789,2.1,3.1,4.961a3.835,3.835,0,0,0,3.254,1.814h.017a3.834,3.834,0,0,0,3.252-1.786l6.58-10.34a2.311,2.311,0,0,0,.36-1.253c.486.042.976.071,1.472.075a2.311,2.311,0,0,0,.354,1.178l6.58,10.34a3.835,3.835,0,0,0,3.252,1.786h.018a3.834,3.834,0,0,0,3.253-1.814l3.1-4.961,5.789-2.1a3.854,3.854,0,0,0,2-5.589Zm-29.49,20.08-3.271-5.241L485.8,253.76l5.877-9.2a18.213,18.213,0,0,0,9.471,7.751Zm11.788-12.592a13.487,13.487,0,1,1,13.486-13.487A13.5,13.5,0,0,1,507.208,248.717Zm13.321,7.351-3.271,5.241-5.439-8.547a18.19,18.19,0,0,0,10.263-7.165l4.832,8.151Z" transform="translate(-480.717 -217.083)" fill="url(#linear-gradient)"/>
      </g>
      <path id="Tracé_345" data-name="Tracé 345" d="M380.278,220.31a2.273,2.273,0,0,0-.384-.039,2.344,2.344,0,0,0-.365.037,27.991,27.991,0,1,0,21.281,46.532c.033-.031.07-.055.1-.089a2.385,2.385,0,0,0,.173-.229,27.966,27.966,0,0,0-20.807-46.212Zm-.412,17.982a10,10,0,1,1-10,10A10.014,10.014,0,0,1,379.866,238.292Zm-2.3-13.216v8.755a14.673,14.673,0,0,0-12.157,12.133h-8.758A23.374,23.374,0,0,1,377.564,225.075Zm2.3,46.553a23.367,23.367,0,0,1-23.218-21h8.758a14.624,14.624,0,0,0,24.088,8.7l6.376,5.924A23.24,23.24,0,0,1,379.866,271.628Zm19.061-9.9-6.449-5.993a14.614,14.614,0,0,0-10.254-21.9v-8.76a23.314,23.314,0,0,1,16.7,36.648Z" transform="translate(-346.338 -100.409)" fill="url(#linear-gradient)"/>
    </g>
  </g>
</svg>
